<svg xmlns="http://www.w3.org/2000/svg" viewBox="0 0 17 17">
    <g fill-rule="evenodd">
        <g fill="#f5f5f5">
            <g>
                <g>
                    <path d="M80 0c2.21 0 4 1.79 4 4v9c0 2.21-1.79 4-4 4h-9c-2.21 0-4-1.79-4-4V4c0-2.21 1.79-4 4-4h9zm-5.923 4.08c-.245 0-.482.093-.67.27-.37.363-.37.958 0 1.32L76.27 8.5l-2.874 2.828c-.37.363-.37.958 0 1.32.368.364.974.364 1.342 0l3.547-3.488c.18-.176.274-.409.274-.66 0-.251-.104-.484-.274-.66l-3.537-3.49c-.19-.176-.435-.269-.672-.269z" transform="translate(-982 -2636) translate(255 2633) translate(660 3)"/>
                </g>
            </g>
        </g>
    </g>
</svg>
